<?xml version="1.0" encoding="UTF-8" standalone="no"?>
<svg xmlns="http://www.w3.org/2000/svg" width="88" height="31">
  <defs>
    <filter id="b" width="1.4491968" height="1.4637406" x="-.22459841" y="-.23187032">
      <feGaussianBlur stdDeviation="37.135842"/>
    </filter>
    <filter id="a" width="1.4891681" height="1.5049128" x="-.24458403" y="-.25245641">
      <feGaussianBlur stdDeviation="2.1796758"/>
    </filter>
  </defs>
  <g transform="translate(0 -1021.3622)">
    <rect width="87" height="30" x=".5" y="1021.8622" fill="#fff" stroke="#000" stroke-linecap="round" stroke-width=".99999988" rx="2.4050119" ry="2.6516509"/>
    <path fill="#c8c8c8" stroke="#000" stroke-linecap="round" stroke-width=".99999988" d="M2.9050119 1021.8622H85.094988c1.332377 0 2.405012 1.1826 2.405012 2.6516v6.8484H.5v-6.8484c0-1.469 1.0726353-2.6516 2.4050119-2.6516z"/>
    <text xml:space="preserve" x="4.389936" y="1100.766" font-family="Arial" font-size="12.4437933" font-weight="400" style="-inkscape-font-specification:Arial" transform="scale(1.0695 .93502)"><tspan x="4.389936" y="1100.766" font-size="9.33284473" font-weight="700" style="-inkscape-font-specification:Bitstream Vera Sans Bold">Designed</tspan></text>
    <text xml:space="preserve" x="31.520178" y="881.41675" font-family="Arial" font-size="5.45880079" font-weight="400" style="-inkscape-font-specification:Arial" transform="scale(.84125 1.1887)"><tspan x="31.520178" y="881.41675" font-size="16.3764019" font-weight="700" style="-inkscape-font-specification:Arial Bold">Inkscape</tspan></text>
    <g fill-rule="evenodd" transform="matrix(.90636 0 0 .83657 39.55228 169.1576)">
      <path fill="#fff" d="M-28.36981 1027.4264c-.609775 0-1.21841.2329-1.685664.7002l-8.305322 8.3037c-.45797.458-.687867 1.0534-.696972 1.651h-.0032s.003.01.0032.01c-.000107.01-.0032.02-.0032.03h.01419c.158951.6048 4.266043 1.3757 4.724274 1.8339.692006.692-2.653615 1.2002-1.961618 1.8922.692009.692 4.182005 1.339 4.874078 2.031.692006.692-1.414219 1.4289-.722205 2.1209.692009.692 3.016526-.173 2.595513 1.6321.934509.9345 2.884233.4882 4.189717-.4463.692006-.692-1.327488-.631-.635474-1.323.692006-.692 2.438763-.6957 3.910612-2.3511-.592434-.9214-2.532208-1.3137-1.840196-2.0057.692009-.6921 2.037361-.3406 4.940304-1.6589 1.417096-.6436 1.300028-1.1324 1.294603-1.7251-.000108-.013 0-.024 0-.036h-.0032c-.0091-.5975-.240587-1.193-.698549-1.651l-8.303747-8.3037c-.467251-.4672-1.077464-.7001-1.687238-.7001z" filter="url(#a)" opacity=".69098708"/>
      <path d="M-28.345907 1030.3693c-.609775 0-1.21841.2329-1.685664.7002l-8.305322 8.3037c-.45797.458-.687867 1.0534-.696972 1.651h-.0032s.003.01.0032.01c-.000107.01-.0032.02-.0032.03h.01419c.158951.6048 4.266043 1.3757 4.724274 1.8339.692006.692-2.653615 1.2002-1.961618 1.8922.692009.692 4.182005 1.339 4.874078 2.031.692006.692-1.414219 1.4289-.722205 2.1209.692009.692 3.016526-.173 2.595513 1.6321.934509.9345 2.884233.4882 4.189717-.4463.692006-.692-1.327488-.631-.635474-1.323.692006-.692 2.438763-.6957 3.910612-2.3511-.592434-.9214-2.532208-1.3137-1.840196-2.0057.692009-.6921 2.037361-.3406 4.940304-1.6589 1.417096-.6436 1.300028-1.1324 1.294603-1.7251-.000108-.013 0-.024 0-.036h-.0032c-.0091-.5975-.240587-1.193-.698549-1.651l-8.303747-8.3037c-.467251-.4672-1.077464-.7001-1.687238-.7001z"/>
      <path fill="#404040" d="M-481.12726 781.60141c-11.31337 0-22.6056 4.32056-31.27474 12.98969l-154.09169 154.06243c-8.4969 8.49674-12.76227 19.54347-12.93118 30.63111h-.0585c0 .0395.0566.0774.0585.11702-.002.18609-.0585.36977-.0585.55586h.2633c2.94912 11.22052 79.14951 25.52328 87.65118 34.02478 12.83905 12.8392-49.23346 22.2681-36.39456 35.1073 12.83906 12.8391 77.59023 24.8426 90.4305 37.6818 12.83908 12.8391-26.2385 26.5104-13.39928 39.3494 12.83907 12.8393 55.96669-3.2094 48.15548 30.2801 17.33829 17.3382 53.51222 9.0588 77.73337-8.2795 12.83906-12.8391-24.62937-11.7068-11.7902-24.5458 12.83907-12.8393 45.24731-12.9085 72.55505-43.6208-10.99163-17.0948-46.98101-24.3746-34.14183-37.2138 12.83906-12.839 37.79989-6.3179 91.65925-30.7773 26.29193-11.9408 24.11992-21.01024 24.01923-32.00618-.002-.23138 0-.43973 0-.67288h-.0585c-.16886-11.08765-4.46371-22.13437-12.96043-30.63111L-449.82328 794.5911c-8.66913-8.66913-19.99062-12.98969-31.30398-12.98969z" filter="url(#b)" opacity=".49473685" transform="translate(-2.3660856 990.10444) scale(.0539)"/>
      <path fill="#fff" d="M-28.416867 1031.4495c.271081.01.490026.2137.919312.492l3.923228 2.9093c.295489.1923.511486.4675.516083.8042l-2.324742-1.1227-.358068 1.8181-1.152565-.6623-1.84796 1.5707-.881585-2.8574-.972921 2.2785-2.716931.2713.02996-1.2095c0-.2905 1.566148-2.3242 2.519821-2.8084l1.745584-1.2536c.257568-.1669.438135-.2344.600784-.2302zm-3.61101 11.8691c1.236654.3206 2.612767.7414 3.716663.749l.0473.4966c-.945279-.097-2.945456-.5538-3.417054-.7947l-.346909-.4509z"/>
      <path d="M-18.906371 1046.2102c.552572.1348 1.61641.8502 1.058915 1.4741-.557445.624-1.942161-.4485-2.741172-1.3272.288115-.7656 1.421835-.2104 1.682257-.1469zm-17.988579 1.7677c.551781-.138 1.826397 0 1.623388.8116-.202837.8118-1.927624.5073-3.043822.1016-.101455-.8118 1.160364-.8482 1.420434-.9132zm10.918411 4.322c.407124-.3971 1.577659-.9202 1.811195-.1168.233787.8034-1.409522 1.4093-2.578095 1.6213-.496609-.6501.574988-1.3173.7669-1.5045z"/>
    </g>
    <text xml:space="preserve" x="50.936092" y="1100.8147" font-family="Arial" font-size="12.4437933" font-weight="400" style="-inkscape-font-specification:Arial" transform="scale(1.0695 .93502)"><tspan x="50.936092" y="1100.8147" font-size="9.33284473" font-weight="700" style="-inkscape-font-specification:Bitstream Vera Sans Bold">Using</tspan></text>
  </g>
</svg>