<svg xmlns="http://www.w3.org/2000/svg" fill="#fff" viewBox="0 0 56.695 46.055"><path d="M29.847 0c-.794.001-1.601.225-2.24.672-1.292.904-1.44 2.399-.29 3.342l-.005.004 7.387 6.007-22.514.024h-.031c-1.861.002-3.65 1.222-4.004 2.765-.364 1.572.9 2.878 2.836 2.885l-.004.006 11.412-.021L2.03 31.314l-.079.06C.032 32.843-.59 35.29.62 36.837c1.228 1.574 3.839 1.576 5.78.008l11.115-9.096s-.163 1.228-.15 1.965c.013.74.25 2.178.603 3.3.744 2.378 2.006 4.578 3.762 6.516 1.802 1.992 4.02 3.59 6.584 4.727 2.694 1.193 5.612 1.802 8.644 1.797a21.2 21.2 0 0 0 8.64-1.826c2.564-1.147 4.782-2.756 6.581-4.749 1.755-1.946 3.014-4.148 3.76-6.525.375-1.2.612-2.42.707-3.642a16.6 16.6 0 0 0-.117-3.618 16.8 16.8 0 0 0-2.399-6.566 18.3 18.3 0 0 0-4.377-4.824l.004-.004L32.047.703Q32.024.683 32 .666C31.42.22 30.64-.001 29.846 0m7.107 15.672c2.967-.004 5.8.97 8.028 2.777a11.1 11.1 0 0 1 2.72 3.229 10.1 10.1 0 0 1 1.233 4.029 10 10 0 0 1-.565 4.28 10.7 10.7 0 0 1-2.447 3.841c-2.29 2.333-5.496 3.655-8.965 3.662-3.474.006-6.678-1.306-8.968-3.635a10.7 10.7 0 0 1-2.45-3.832 9.95 9.95 0 0 1-.56-4.28 10.1 10.1 0 0 1 1.226-4.032 11.1 11.1 0 0 1 2.725-3.238c2.226-1.814 5.06-2.797 8.023-2.801m.256 3.615c-2.012 0-3.856.71-5.226 1.87-1.397 1.18-2.322 2.847-2.428 4.738-.107 1.94.672 3.746 2.043 5.084 1.396 1.36 3.386 2.214 5.611 2.214s4.213-.853 5.61-2.214c1.37-1.338 2.15-3.143 2.045-5.086-.107-1.89-1.034-3.556-2.43-4.737-1.371-1.16-3.215-1.869-5.225-1.869"/></svg>