<svg xmlns="http://www.w3.org/2000/svg" fill="#fff" viewBox="0 0 146 238"><path d="M119 0c-9.913 0-18.648 5.455-23.343 13.502H84.501c-39.052 0-70.998 31.946-70.998 70.998v103.156C5.455 192.352 0 201.086 0 211c0 14.817 12.183 27 27 27s27-12.183 27-27c0-9.913-5.453-18.648-13.5-23.344V159.25c0-24.46 19.54-44.002 44-44.002h11.156c4.695 8.048 13.43 13.502 23.344 13.502 14.817 0 27-12.183 27-27s-12.183-27-27-27c-9.914 0-18.649 5.453-23.344 13.5H84.501c-16.582 0-31.882 5.761-44 15.38V84.5c0-24.46 19.54-44 44-44h11.156c4.695 8.048 13.43 13.5 23.344 13.5 14.817 0 27-12.183 27-27S133.818 0 119 0m0 16.002c6.17 0 11 4.828 11 10.998s-4.83 11-11 11-11.002-4.83-11.002-11S112.83 16.002 119 16.002m0 74.748c6.17 0 10.999 4.83 10.999 11S125.17 112.748 119 112.748s-11.002-4.828-11.002-10.998 4.832-11 11.002-11M27 200c6.17 0 11 4.83 11 11s-4.83 10.998-11 10.998S16 217.17 16 211s4.83-11 11-11"/></svg>