<svg xmlns="http://www.w3.org/2000/svg" viewBox="0 0 89.038 97.988" style="clip-rule:evenodd;fill-rule:evenodd;stroke-linejoin:round;stroke-miterlimit:2"><path d="M386.409 710.434c-5.596 0-9.693 4.199-9.693 9.998v30.392c0 5.799 4.097 9.998 9.693 9.998 5.597 0 9.694-4.199 9.694-9.998v-30.392c0-5.799-4.097-9.998-9.694-9.998m-23.857 33h-.5c-2.3 0-3.4-1.401-3.4-3.703v-11.909h3.9c5.5 0 9.4-3.598 9.4-8.694s-3.9-8.694-9.4-8.694h-3.9v-6.7c0-5.8-3.997-10.1-9.693-10.1-5.697 0-9.694 4.3-9.694 10.1v6.7h-.1c-5.5 0-9 3.598-9 8.694s3.5 8.694 9 8.694h.1v12.91c0 13.594 6.596 20.09 20.287 20.09h3c5.5 0 9.4-2.998 9.4-8.694s-3.9-8.694-9.4-8.694m23.857-37.012c6.097 0 10.794-4.698 10.794-10.794s-4.697-10.794-10.794-10.794c-6.096 0-10.793 4.698-10.793 10.794s4.697 10.794 10.793 10.794" style="fill-rule:nonzero" transform="translate(-319.165 -673.834)"/><path d="M386.409 710.434c-5.596 0-9.693 4.199-9.693 9.998v30.392c0 5.799 4.097 9.998 9.693 9.998 5.597 0 9.694-4.199 9.694-9.998v-30.392c0-5.799-4.097-9.998-9.694-9.998m-23.857 33h-.5c-2.3 0-3.4-1.401-3.4-3.703v-11.909h3.9c5.5 0 9.4-3.598 9.4-8.694s-3.9-8.694-9.4-8.694h-3.9v-6.7c0-5.8-3.997-10.1-9.693-10.1-5.697 0-9.694 4.3-9.694 10.1v6.7h-.1c-5.5 0-9 3.598-9 8.694s3.5 8.694 9 8.694h.1v12.91c0 13.594 6.596 20.09 20.287 20.09h3c5.5 0 9.4-2.998 9.4-8.694s-3.9-8.694-9.4-8.694m23.857-37.012c6.097 0 10.794-4.698 10.794-10.794s-4.697-10.794-10.794-10.794c-6.096 0-10.793 4.698-10.793 10.794s4.697 10.794 10.793 10.794" style="fill-rule:nonzero" transform="translate(-319.165 -673.834)"/><path d="M365.251 690.241c-3.686-4.736-9.445-7.607-16.292-7.607-11.484 0-19.905 8.075-20.636 19.466-5.819 3.317-9.158 9.482-9.158 17.028 0 7.521 3.317 13.67 9.1 16.996v4.608c0 10.402 3.132 17.878 8.275 22.964 5.106 5.05 12.609 8.126 23.012 8.126h3c4.73 0 8.819-1.283 12.054-3.442 3.299 2.203 7.338 3.442 11.803 3.442 11.848 0 20.694-8.722 20.694-20.998v-30.392c0-4.416-1.144-8.372-3.167-11.624 2.695-3.626 4.267-8.169 4.267-13.18 0-12.309-9.484-21.794-21.794-21.794-10.441 0-18.849 6.824-21.158 16.407m21.158 20.193c-5.596 0-9.693 4.199-9.693 9.998v30.392c0 5.799 4.097 9.998 9.693 9.998 5.597 0 9.694-4.199 9.694-9.998v-30.392c0-5.799-4.097-9.998-9.694-9.998m-23.857 33h-.5c-2.3 0-3.4-1.401-3.4-3.703v-11.909h3.9c5.5 0 9.4-3.598 9.4-8.694s-3.9-8.694-9.4-8.694h-3.9v-6.7c0-5.8-3.997-10.1-9.693-10.1-5.697 0-9.694 4.3-9.694 10.1v6.7h-.1c-5.5 0-9 3.598-9 8.694s3.5 8.694 9 8.694h.1v12.91c0 13.594 6.596 20.09 20.287 20.09h3c5.5 0 9.4-2.998 9.4-8.694s-3.9-8.694-9.4-8.694m23.857-37.012c6.097 0 10.794-4.698 10.794-10.794s-4.697-10.794-10.794-10.794c-6.096 0-10.793 4.698-10.793 10.794s4.697 10.794 10.793 10.794" style="fill:#fff" transform="translate(-319.165 -673.834)"/></svg>