<svg id="Layer_2" xmlns="http://www.w3.org/2000/svg" xmlns:xlink="http://www.w3.org/1999/xlink" viewBox="0 0 128 128" style="enable-background:new 0 0 128 128;"><radialGradient id="SVGID_1_" cx="93.3796" cy="155.8251" r="148.6958" gradientUnits="userSpaceOnUse"><stop offset=".3342" style="stop-color:#3049B4"/><stop offset=".5252" style="stop-color:#2D46AF"/><stop offset=".7371" style="stop-color:#263EA2"/><stop offset=".9583" style="stop-color:#1A308C"/><stop offset="1" style="stop-color:#172D87"/></radialGradient><path style="fill:url(#SVGID_1_);" d="M116.62 124.26H11.32c-4.15.0-7.52-3.37-7.52-7.52V11.44c0-4.15 3.37-7.52 7.52-7.52h105.3c4.15.0 7.52 3.37 7.52 7.52v105.3C124.15 120.89 120.78 124.26 116.62 124.26z"/><path style="fill:#303030;" d="M3.8 107.78v8.96c0 4.15 3.37 7.52 7.52 7.52h105.3c4.15.0 7.52-3.37 7.52-7.52V97.88s-8.54-5.45-13.58-8.17-11.49-4.46-13.98-4.29c-2.49.17-10.52 4.9-15.04 8.64S68.5 105.78 68.5 105.78s-8.24-2.94-11.99-3c-5.41-.09-15.61 6.05-15.61 6.05s-15.5-7.98-19.34-8.26S3.8 107.78 3.8 107.78z"/><radialGradient id="SVGID_2_" cx="2.9267" cy="-32.0444" r="137.8419" gradientUnits="userSpaceOnUse"><stop offset=".7558" style="stop-color:#9079F1"/><stop offset="1" style="stop-color:#6366D6"/></radialGradient><path style="fill:url(#SVGID_2_);" d="M3.81 105.99s5.16-2.57 8.22-4.65 7.96-5.75 8.94-6c.98-.24 11.87-.37 21.42-.98s14.93-.98 16.77-1.59 13.47-9.3 14.2-9.92 3.79-4.41 6-6.49c2.2-2.08 6.12-6.37 8.45-8.94s14.08-22.77 16.04-24.36 20.31-7.4 20.31-7.4V16.21s-12.23 9-13.09 9-11.63-2.2-15.79-1.84c-4.16.37-6.24.73-6.24.73s-11.51 7.96-12.36 9.18S64.54 59.11 64.54 59.11l-23.01 3.55s-10.53-.49-12.49.49-9.55 6.98-10.65 8.45c-1.1 1.47-6.37 9.67-7.1 11.02-.73 1.35-2.45 4.9-2.45 4.9L3.8 92.59v13.4z"/><radialGradient id="SVGID_3_" cx="90.9108" cy="1.2346" r="52.8055" gradientUnits="userSpaceOnUse"><stop offset=".3875" style="stop-color:#6D66D7"/><stop offset=".9362" style="stop-color:#6D66D7;stop-opacity:0"/></radialGradient><path style="fill:url(#SVGID_3_);" d="M3.81 105.99s5.16-2.57 8.22-4.65 7.96-5.75 8.94-6c.98-.24 11.87-.37 21.42-.98s14.93-.98 16.77-1.59 13.47-9.3 14.2-9.92 3.79-4.41 6-6.49c2.2-2.08 6.12-6.37 8.45-8.94s14.08-22.77 16.04-24.36 20.31-7.4 20.31-7.4V16.21s-12.23 9-13.09 9-12.08-1.82-15.79-1.84-4.72.2-6.24.73c-1.52.54-11.51 7.96-12.36 9.18S64.54 59.11 64.54 59.11l-23.01 3.55s-10.53-.49-12.49.49-9.55 6.98-10.65 8.45c-1.1 1.47-6.37 9.67-7.1 11.02-.73 1.35-2.45 4.9-2.45 4.9L3.8 92.59v13.4z"/><radialGradient id="SVGID_4_" cx="132.6165" cy="28.4422" r="29.4621" gradientUnits="userSpaceOnUse"><stop offset="0" style="stop-color:#273E9B"/><stop offset=".8606" style="stop-color:#273E9B;stop-opacity:0"/></radialGradient><path style="fill:url(#SVGID_4_);" d="M103.84 43.07c1.96-1.59 20.31-7.4 20.31-7.4V16.21s-12.23 9-13.09 9c0 0-8.84.0-9.62 7.35S103.84 43.07 103.84 43.07z"/><radialGradient id="SVGID_5_" cx="-2.6623" cy="116.5223" r="30.4174" gradientUnits="userSpaceOnUse"><stop offset=".1996" style="stop-color:#273E9B"/><stop offset="1" style="stop-color:#273E9B;stop-opacity:0"/></radialGradient><path style="fill:url(#SVGID_5_);" d="M8.85 87.51l-5.04 5.07v13.41s5.16-2.57 8.22-4.65 7.96-5.75 8.94-6l9.33-.54s-4.35-10.24-7.73-11.86C13.15 78.43 8.85 87.51 8.85 87.51z"/><path style="fill:#0A67A8;" d="M116.5 31.14c.48 1.18 7.64.06 7.64.06v-9.75s-2.41 1.61-4.47 3.91c-1.95 2.17-3.88 4.04-3.17 5.78z"/><radialGradient id="SVGID_6_" cx="79.5116" cy="30.7977" r="28.3349" gradientTransform="matrix(0.5482 0.8364 -1.4474 0.9486 80.5034 -64.9196)" gradientUnits="userSpaceOnUse"><stop offset=".2076" style="stop-color:#6D66D7"/><stop offset=".3503" style="stop-color:#6066D1;stop-opacity:1"/><stop offset=".6155" style="stop-color:#3D66C0;stop-opacity:0.9999"/><stop offset=".9426" style="stop-color:#0A67A8;stop-opacity:0.9998"/></radialGradient><path style="fill:url(#SVGID_6_);" d="M110.4 33.28c.24.67-6.9 3.96-9.11 4.91-2.22.95-3.96 1.74-4.76 2.54-.79.79-2.22 3.57-3.25 7.21s-1.51 6.5-2.3 7.37c-.79.87-4.68 1.98-5.31 2.38-.63.4-4.12 6.18-5.47 8.08-1.35 1.9-7.45 6.82-9.75 8.4s-10.22 7.29-11.97 4.99c-1.74-2.3 2.77-8.8 3.41-9.59.63-.79 4.6-3.09 4.6-3.09s2.46-12.84 3.33-14.35 3.57-1.98 4.91-2.54c1.35-.55 2.38-.79 2.38-.79s2.77-2.62 4.12-3.41c1.35-.79 3.57-.63 3.57-.63s2.06-10.3 3.25-11.89 7.61-1.9 10.38-2.62C101.21 29.56 108.89 29 110.4 33.28z"/><radialGradient id="SVGID_7_" cx="17.3407" cy="53.9287" r="39.0991" gradientTransform="matrix(0.5857 0.8105 -1.0881 0.7863 65.865 -2.5307)" gradientUnits="userSpaceOnUse"><stop offset=".4609" style="stop-color:#9079F1"/><stop offset=".5172" style="stop-color:#8A78EE;stop-opacity:1"/><stop offset=".5895" style="stop-color:#7A76E5;stop-opacity:0.9999"/><stop offset=".6705" style="stop-color:#6073D7;stop-opacity:0.9999"/><stop offset=".7577" style="stop-color:#3B6EC3;stop-opacity:0.9999"/><stop offset=".8492" style="stop-color:#0D67AA;stop-opacity:0.9998"/><stop offset=".8542" style="stop-color:#0A67A8;stop-opacity:0.9998"/></radialGradient><path style="fill:url(#SVGID_7_);" d="M13.39 91.38c.98.88 2.38-.24 8.8-1.35 6.42-1.11 17.36-.71 18.62-1.19 1.27-.48 9.91-2.38 11.33-3.96 1.43-1.59 1.27-11.57 1.74-14.74.48-3.17 1.9-12.13 1.59-13.87-.32-1.74-2.46-1.27-3.09.4-.63 1.66-3.8 9.83-6.18 10.86s-3.88 1.19-4.52 1.74c-.63.55-6.42 6.74-7.05 6.82-.63.08-6.58-1.59-7.85-.95-1.27.63-5.86 4.6-6.9 5.79C18.86 82.1 11.89 90.03 13.39 91.38z"/><radialGradient id="SVGID_8_" cx="62.1931" cy="97.912" r="55.1243" gradientUnits="userSpaceOnUse"><stop offset=".3509" style="stop-color:#D0B4F4;stop-opacity:0.0488"/><stop offset=".679" style="stop-color:#D0B4F4"/></radialGradient><path style="fill:url(#SVGID_8_);" d="M36.45 70.22s1.85-14.17 10.44-22.94c4.8-4.9 26.1-.78 27.08-.29s9.18 25.58 9.18 25.58-9.3 9.92-9.79 10.28c-.49.37-13.22 9.79-14.2 9.92C58.18 92.89 36.45 70.22 36.45 70.22z"/><radialGradient id="SVGID_9_" cx="72.689" cy="67.1416" r="19.4372" gradientUnits="userSpaceOnUse"><stop offset=".1892" style="stop-color:#0A67A8;stop-opacity:0.9998"/><stop offset="1" style="stop-color:#0A67A8;stop-opacity:0.0196"/></radialGradient><path style="fill:url(#SVGID_9_);" d="M93.28 47.95c-1.03 3.65-1.51 6.5-2.3 7.37-.79.87-4.68 1.98-5.31 2.38-.63.4-4.12 6.18-5.47 8.08s-7.45 6.82-9.75 8.4-10.22 7.29-11.97 4.99c-1.74-2.3 2.77-8.8 3.41-9.59.63-.79 4.6-3.09 4.6-3.09s2.46-12.84 3.33-14.35 3.57-1.98 4.91-2.54c1.35-.55 2.38-.79 2.38-.79s2.77-2.62 4.12-3.41c1.35-.79 3.57-.63 3.57-.63S94.31 44.3 93.28 47.95z"/><radialGradient id="SVGID_10_" cx="56.0079" cy="51.8086" r="17.3827" gradientUnits="userSpaceOnUse"><stop offset=".0111" style="stop-color:#0A67A8;stop-opacity:0.9998"/><stop offset="1" style="stop-color:#0A67A8;stop-opacity:0.0196"/></radialGradient><path style="fill:url(#SVGID_10_);" d="M40.81 88.84c1.27-.48 9.91-2.38 11.33-3.96 1.43-1.59 1.27-11.57 1.74-14.74.48-3.17 1.9-12.13 1.59-13.87-.32-1.74-2.46-1.27-3.09.4-.63 1.66-3.8 9.83-6.18 10.86s-3.88 1.19-4.52 1.74c-.63.55-6.42 6.74-7.05 6.82-.63.08-6.58-1.59-7.85-.95C25.52 75.76 39.55 89.32 40.81 88.84z"/><path style="fill:#FFFFFF;" d="M55.19 50.22c-.37.68-.31 1.66.43 2.22.79.6 1.88.35 2.31-.33.41-.65.46-1.7-.53-2.38C56.58 49.17 55.56 49.54 55.19 50.22z"/><path style="fill:#FFFFFF;" d="M62.83 53.07c-.3.55-.14 1.15.45 1.45.59.29 1.15-.04 1.34-.42.23-.46-.04-1.26-.53-1.42C63.72 52.56 63.1 52.58 62.83 53.07z"/><path style="fill:#FFFFFF;" d="M62.97 57.42c-.61-.04-1.2.41-1.24 1.16s.32 1.34 1.14 1.34c.85.0 1.18-.55 1.24-1.04C64.17 58.4 63.92 57.48 62.97 57.42z"/><path style="fill:#FFFFFF;" d="M73.46 61.43c-.25.89.28 1.93 1.47 1.99 1.2.06 1.72-.71 1.72-1.75.0-.83-.67-1.5-1.69-1.47C74.13 60.23 73.64 60.78 73.46 61.43z"/><path style="fill:#FFFFFF;" d="M74.8 46.26c.6.51.44 1.28.05 1.65s-1.1.41-1.48.05c-.51-.49-.46-1.21-.12-1.58C73.68 45.91 74.34 45.87 74.8 46.26z"/><path style="fill:#FFFFFF;" d="M71.4 77.99c-.52.68-.34 1.65.4 2.08.63.37 1.46.36 1.95-.4.49-.76.11-1.76-.4-2.07C72.84 77.31 71.93 77.29 71.4 77.99z"/><path style="fill:#FFFFFF;" d="M59.7 80.99c-.02.49.23.89.77.91.54.02.77-.33.8-.77.02-.44-.31-.84-.8-.84C60.05 80.29 59.72 80.67 59.7 80.99z"/><path style="fill:#FFFFFF;" d="M54.79 74.62c-.06.79.4 1.39 1.19 1.36.79-.02 1.29-.27 1.31-1.19s-.67-1.24-1.24-1.26C55.48 73.5 54.84 73.92 54.79 74.62z"/><path style="fill:#FFFFFF;" d="M56.96 42.16c-.08.87.67 1.29 1.23 1.32.67.03 1.26-.28 1.29-1.21.03-1.01-.62-1.32-1.23-1.32C57.77 40.96 57.04 41.26 56.96 42.16z"/><path style="fill:#FFD717;" d="M62.34 44.65s-1.38-4.11-.85-4.49c.5-.36 4.15 1.81 4.15 1.81s2.95-2.1 3.53-1.69c.54.38-.5 3.84-.5 3.84s2.75 2.05 2.69 2.57c-.08.61-3.57 1.34-3.57 1.34s-1.04 3.57-1.73 3.64c-.5.06-2.26-3.34-2.26-3.34s-4.01.52-4.17.02C59.36 47.51 62.34 44.65 62.34 44.65z"/><path style="fill:#FEE262;" d="M70.71 67.66s.64-2.91 1.16-3.03 2.07 2.47 2.07 2.47 3.47-.44 3.75.16c.24.52-1.95 2.91-1.95 2.91s1.36 3.39.96 3.83c-.34.38-3.34-.92-3.34-.92s-3.09 2.19-3.23 1.92c-.26-.49.29-3.63.29-3.63s-3.14-1.68-2.98-2.24C67.59 68.57 70.71 67.66 70.71 67.66z"/><path style="fill:#FFF7B3;" d="M80.74 52.1s-3.14 1.37-3.18 2.06c-.04.69 3.84 1.47 3.84 1.47s.48 3.6 1.25 3.72 2.22-3.24 2.22-3.24 3.69.24 3.89-.37c.18-.57-2.45-2.95-2.45-2.95s1.6-3.19 1.11-3.65c-.5-.46-3.59 1.47-3.59 1.47s-2.55-2.78-3.21-2.43C80.1 48.44 80.74 52.1 80.74 52.1z"/><path style="fill:#FFF7B3;" d="M40.32 52.39s-2.45-3.13-2.87-2.98c-.42.15-.54 4.01-.54 4.01s-3.67 1.18-3.67 1.61c0 .57 3.17 1.87 3.17 1.87s.11 3.86.65 4.09c.51.22 2.83-2.6 2.83-2.6s4.01.8 4.32.5c.31-.31-1.45-3.9-1.45-3.9s1.8-3.13 1.45-3.63C43.87 50.86 40.32 52.39 40.32 52.39z"/><path style="fill:#FFF7B3;" d="M55.1 86.6s.03-4.85.73-5.18 3.18 4.01 3.18 4.01 4.7-1.73 5.03-1.23-2.43 4.79-2.43 4.79 3.14 4.29 2.64 4.74c-.5.46-5.23-.98-5.23-.98s-3.06 3.99-3.81 3.51c-.79-.5-.31-5.24-.31-5.24s-4.99-1.44-4.87-2.14C50.15 88.18 55.1 86.6 55.1 86.6z"/><path style="fill:#FFC6B2;" d="M44.42 34.07s-1.92-4.4-1.44-5.05c.48-.65 4.98 2.14 4.98 2.14s3.23-3.47 3.95-3.06c.79.46-.29 5.03-.29 5.03s4.19 2.69 4.11 3.46c-.07.77-4.96 1.71-4.96 1.71s-1.42 4.96-2 5.03c-.6.08-3.06-4.69-3.06-4.69s-4.76.12-5-.55S44.42 34.07 44.42 34.07z"/><path style="fill:#FFC6B2;" d="M38.35 78.42c-.05 2.08 1.14 3.85 3.57 3.92 2.68.08 3.62-2.08 3.6-3.9-.02-1.81-1.46-3.55-3.6-3.42S38.39 76.55 38.35 78.42z"/><path style="fill:#FFC6B2;" d="M86.74 40c-1.23.02-2.31.73-2.25 2.47.05 1.56 1.36 2.13 2.39 2.1 1.05-.04 2.06-.59 2.11-2.11C89.05 40.99 88.11 39.98 86.74 40z"/><path style="fill:#FFF7B3;" d="M105.31 27.68c-1.87-.12-2.84 1.32-2.88 3.06-.03 1.74 1.07 3.05 3.03 3.03 1.92-.02 2.7-1.71 2.65-3.06C108.04 28.66 106.87 27.79 105.31 27.68z"/><path style="fill:#FEE262;" d="M11.62 62.77s-3.74-2.58-4.12-2.22c-.4.37.29 4.75.29 4.75s-3.09 2.96-2.93 3.47c.13.42 3.95.7 3.95.7s1.78 3.82 2.45 3.89c.67.06 2.17-3.66 2.17-3.66s4.24.22 4.46-.38c.22-.61-2.51-3.67-2.51-3.67s1.08-4.4.54-4.72C15.38 60.61 11.62 62.77 11.62 62.77z"/><path style="fill:#FEE262;" d="M26.23 58.54c-.06.86.76 1.56 1.66 1.43.89-.13 1.15-.73 1.18-1.56.03-.83-.83-1.43-1.5-1.34C26.9 57.17 26.3 57.62 26.23 58.54z"/><path style="fill:#FEE262;" d="M102.74 58.73c-.93-.01-1.74.72-1.66 1.83.08 1.06.89 1.58 1.91 1.54s1.6-.91 1.6-1.64S104.11 58.75 102.74 58.73z"/><path style="fill:#FEE262;" d="M105.49 51.34c-.06.64.46 1.07 1.14 1.09.81.02 1.14-.47 1.11-1.14-.04-.68-.56-.97-1.09-1.03S105.57 50.55 105.49 51.34z"/><path style="fill:#FEE262;" d="M120.77 49.27c0 .48.33 1.07 1.11 1.05.79-.01 1.05-.51 1.1-1.02.05-.51-.29-1.11-1.14-1.13S120.77 48.79 120.77 49.27z"/><path style="fill:#FEE262;" d="M104.37 16.84c-.9.01-1.98.59-2 2.12s1.2 2.18 2.2 2.16 2.12-.67 2.12-2.14C106.68 17.58 105.66 16.82 104.37 16.84z"/><path style="fill:#FEE262;" d="M95.24 10.17c-.88.03-1.49.71-1.49 1.53s.61 1.48 1.56 1.44c1.02-.04 1.39-.8 1.42-1.44C96.77 10.93 96.14 10.14 95.24 10.17z"/><polygon style="fill:#FFF7B3;" points="36.43,85.82 34.23,88.36 36.47,91.19 39.09,88.45"/><path style="fill:#FFF7B3;" d="M46.03 98.52c.47.53.41 1.45-.26 1.92-.46.32-1.19.29-1.66-.21-.43-.45-.47-1.19.02-1.73C44.63 97.97 45.52 97.94 46.03 98.52z"/><path style="fill:#FFF7B3;" d="M49.07 96.91c-.42.4-.34.98-.08 1.35.23.33 1.02.53 1.45.06.21-.24.37-1.02-.02-1.39C50.04 96.56 49.42 96.58 49.07 96.91z"/><path style="fill:#FFF7B3;" d="M26.79 67.13c-.76-.02-.98.62-.96 1.03s.35.87.91.87.93-.5.91-1C27.63 67.54 27.37 67.15 26.79 67.13z"/><path style="fill:#FFF7B3;" d="M8.02 76.73c-1.12.08-1.43.75-1.4 1.65.03.84.57 1.4 1.61 1.43.86.03 1.47-.64 1.47-1.61C9.71 77.23 9.03 76.66 8.02 76.73z"/><path style="fill:#FFF7B3;" d="M27.53 38.15c-.8-.02-1.24.62-1.28 1.21-.05.75.55 1.19 1.21 1.21.78.02 1.09-.62 1.12-1.12S28.37 38.18 27.53 38.15z"/><path style="fill:#FFF7B3;" d="M54.83 16.09c0 .66.36 1.04.98 1.06.54.02.96-.44.96-1 0-.56-.42-.98-.96-.98C55.27 15.17 54.83 15.51 54.83 16.09z"/><path style="fill:#FEE066;" d="M45.47 21.11c-.61-.04-1.1.39-1.12 1.05-.02.66.37 1.05 1.05 1.05s1.08-.32 1.1-.88C46.52 21.62 46.15 21.16 45.47 21.11z"/><path style="fill:#FEE066;" d="M48 15.38c-.73.0-1.06.41-1.11 1.04-.05.63.46 1.15 1.01 1.17.67.03 1.19-.41 1.14-1.17C48.99 15.75 48.57 15.38 48 15.38z"/><path style="fill:#FFFFFF;" d="M17.85 74.61c-.2.71.22 1.54 1.17 1.59.95.05 1.37-.56 1.37-1.39.0-.66-.54-1.2-1.34-1.17C18.39 73.66 18 74.1 17.85 74.61z"/><path style="fill:#FFFFFF;" d="M30.17 84.43c-.19.65.2 1.42 1.08 1.46.88.04 1.26-.52 1.26-1.28.0-.61-.49-1.1-1.24-1.08C30.66 83.55 30.3 83.96 30.17 84.43z"/><path style="fill:#FFFFFF;" d="M41.7 91.33c-.15.51.16 1.11.84 1.14s.98-.4.98-1c0-.47-.39-.86-.97-.84C42.08 90.64 41.8 90.96 41.7 91.33z"/><path style="fill:#FFFFFF;" d="M8.31 94.83c-.19.66.2 1.43 1.09 1.47.88.05 1.27-.52 1.27-1.29.0-.61-.5-1.11-1.25-1.09C8.81 93.94 8.45 94.35 8.31 94.83z"/><path style="fill:#FFFFFF;" d="M81.79 32.91c.48.41.35 1.02.04 1.31s-.88.33-1.18.04c-.41-.39-.37-.96-.09-1.26C80.9 32.63 81.42 32.59 81.79 32.91z"/><path style="fill:#FFFFFF;" d="M97.28 25.67c.77.65.57 1.64.06 2.11-.51.48-1.42.53-1.9.06-.65-.62-.6-1.55-.15-2.02C95.85 25.22 96.69 25.16 97.28 25.67z"/><path style="fill:#FFFFFF;" d="M91.03 16.88c.68.58.5 1.44.05 1.86s-1.25.46-1.68.05c-.58-.55-.52-1.36-.13-1.78C89.77 16.48 90.51 16.43 91.03 16.88z"/><path style="fill:#FFFFFF;" d="M117.3 17.31c.6.51.44 1.28.05 1.65-.4.37-1.11.41-1.49.05-.51-.49-.47-1.21-.12-1.58C116.18 16.96 116.84 16.92 117.3 17.31z"/><path style="fill:#FFFFFF;" d="M121 14.02c.39.33.29.83.03 1.08-.26.24-.72.27-.97.03-.33-.32-.3-.79-.08-1.03C120.27 13.79 120.7 13.76 121 14.02z"/><path style="fill:#FFFFFF;" d="M112.96 45.06c.64.55.47 1.37.05 1.76s-1.18.44-1.59.05c-.55-.52-.5-1.29-.12-1.69C111.77 44.69 112.47 44.64 112.96 45.06z"/><path style="fill:#FFFFFF;" d="M95.49 52.17c.46.39.34.97.04 1.26-.3.28-.84.31-1.13.04-.39-.37-.35-.92-.09-1.2C94.64 51.9 95.14 51.87 95.49 52.17z"/></svg>