<svg id="Layer_2" xmlns="http://www.w3.org/2000/svg" xmlns:xlink="http://www.w3.org/1999/xlink" viewBox="0 0 128 128" style="enable-background:new 0 0 128 128;"><polygon style="fill:#CA2C31;" points="3.77,71.73 20.11,55.63 47.93,50.7 45.18,65.26 7.57,76.82 5.14,75.77"/><polygon style="fill:#A02422;" points="22.94,59.76 5.2,75.88 18.25,82.24 38.06,72.13 38.06,67.36 42.11,56.44"/><path style="fill:#A02422;" d="M64.92 88.15l-8.57 3.72-8.09 17.15s7.12 15.77 7.44 15.77 4.37.32 4.37.32l14.4-16.1 3.64-27.5L64.92 88.15z"/><path style="fill:#CA2C31;" d="M56.5 100.84s4.77-.97 8.17-2.59 7.6-4.04 7.6-4.04l-1.54 13.43-15.05 17.13s-.59-.73-3.09-6.17c-1.99-4.34-2.68-5.89-2.68-5.89L56.5 100.84z"/><path style="fill:#F7D74D;" d="M31.58 80.66s-5.74-.48-12.03 7.47c-5.74 7.26-8.43 19.08-9.47 22.12s-3.53 3.66-2.7 5.05 4.42 1.31 8.85.76 8.23-1.94 8.23-1.94-.19.48-.83 1.52c-.23.37-1.03.9-.97 1.45.14 1.31 11.36 1.34 20.32-7.88 9.68-9.95 4.98-18.11 4.98-18.11L31.58 80.66z"/><path style="fill:#FBF0B4;" d="M33.31 85.29s-6.19.33-11.31 8.28-7.5 17.16-7.01 17.78c.48.62 10.02-2.83 12.31-2.14 1.57.48.76 2.07 1.18 2.49.35.35 4.49.94 11.19-6.32 6.71-7.26 5.12-17.46 5.12-17.46L33.31 85.29z"/><path style="fill:#858585;" d="M36.35 74.44s-3.11 2.77-4.22 4.36-1.11 1.73-1.04 2.21c.07.48 1.22 5.75 6.01 10.37 5.88 5.67 11.13 6.43 11.89 6.43s5.81-5.67 5.81-5.67L36.35 74.44z"/><path style="fill:#437687;" d="M50.1 91.24s5.04 3.31 13.49.47c11.55-3.88 20.02-12.56 30.51-23.52 10.12-10.58 18.61-23.71 18.61-23.71l-5.95-19.93L50.1 91.24z"/><path style="fill:#3F545F;" d="M67.99 80.33l1.39-4.32 3.48.49s2.65 1.25 4.6 2.16c1.95.91 4.46 1.6 4.46 1.6l-4.95 4.18s-2.7-1.02-4.67-1.88C70.08 81.59 67.99 80.33 67.99 80.33z"/><path style="fill:#8DAFBF;" d="M84.32 16.14s-9.62 5.58-23.41 18.63c-12.43 11.76-21.64 22.4-23.87 31.45-1.86 7.58-.87 12.18 3.36 17.15 4.47 5.26 9.71 7.87 9.71 7.87s3.94.06 20.38-12.59C91 62.86 107.43 36.42 107.43 36.42L84.32 16.14z"/><path style="fill:#D83F22;" d="M104.18 41.84s-8.37-3.57-14.34-11.9c-5.93-8.27-5.46-13.86-5.46-13.86s4.96-3.89 16.11-8.34c7.5-2.99 17.71-4.52 21.07-2.03s-2.3 14.98-2.3 14.98l-10.31 19.96-4.77 1.19z"/><path style="fill:#6896A5;" d="M68.17 80.4s-7.23-3.69-11.83-8.94c-8.7-9.91-10.5-20.79-10.5-20.79l4.37-5.13S51.3 57.1 60.63 67.09c6.08 6.51 12.43 9.49 12.43 9.49s-1.27 1.07-2.63 2.11C69.56 79.36 68.17 80.4 68.17 80.4z"/><path style="fill:#A02422;" d="M112.71 44.48s4.34-5.23 8.45-17.02c5.74-16.44.74-21.42.74-21.42s-1.69 7.82-7.56 18.69c-4.71 8.71-10.41 17-10.41 17s3.14 1.41 4.84 1.9C110.91 44.25 112.71 44.48 112.71 44.48z"/><path style="fill:#B3E1EE;" d="M39.81 69.66c1.3 1.24 3.27-.06 4.56-3.1 1.3-3.04 1.28-4.74.28-5.46-1.24-.9-3.32 1.07-4.23 2.82C39.42 65.86 38.83 68.72 39.81 69.66z"/><path style="fill:#B3E1EE;" d="M84.95 20.13s-7.61 5.47-15.73 12.91c-7.45 6.83-12.39 12.17-13.07 13.41-.72 1.33-.73 3.21-.17 4.17s1.8 1.46 2.93.62c1.13-.85 9.18-9.75 16.45-16.11 6.65-5.82 11.78-9.51 11.78-9.51s2.08-3.68 1.74-4.52C88.54 20.25 84.95 20.13 84.95 20.13z"/><path style="fill:#ED6A65;" d="M84.95 20.13s5.62-4.31 11.74-7.34c5.69-2.82 11.35-5.17 12.37-3.13.97 1.94-5.37 4.58-10.95 8.14s-10.95 7.81-10.95 7.81-.82-1.5-1.35-2.89C85.22 21.21 84.95 20.13 84.95 20.13z"/><path style="fill:#E1E1E1;" d="M89.59 39.25c-5.57-5.13-13.32-3.75-17.14.81-3.92 4.7-3.63 11.88 1 16.2 4.21 3.92 12.04 4.81 16.76-.69C94.41 50.69 94.15 43.44 89.59 39.25z"/><path style="fill:#3F545F;" d="M75.33 41.87c-3.31 3.25-3.13 9.69.81 12.63 3.44 2.57 8.32 2.44 11.38-.69 3.06-3.13 3.06-8.82.19-11.76C84.41 38.68 79.12 38.15 75.33 41.87z"/><path style="fill:#A02524;" d="M50 76.89s6.19-6.28 6.87-5.6.59 4.49-2.37 8.73C51.53 84.26 45 91.81 39.83 96.9c-5.1 5.01-12.29 10.74-12.97 10.64-.53-.08-2.68-1.15-3.54-2.19-.84-1.03 1.67-5.9 2.68-7.51 1.02-1.61 24-20.95 24-20.95z"/><path style="fill:#CA2C31;" d="M21.23 101.85c-.08 1.44 2.12 3.54 2.12 3.54L56.87 71.3s-1.57-1.77-6.19 1.1c-4.66 2.9-8.74 6.38-14.76 12.21C27.53 92.75 21.31 100.41 21.23 101.85z"/><path style="fill:#FFFFFF;" d="M19.06 36.95c-1.11 1.11-1.16 2.89.08 3.91 1.1.91 2.89.32 3.56-.5s.59-2.6-.3-3.48C21.51 35.99 19.74 36.28 19.06 36.95z"/><path style="opacity:0.5;fill:#FFFFFF;" d="M41.02 35.65c-.84.93-.57 2.31.21 2.82s1.95.46 2.52-.24c.51-.63.57-1.89-.21-2.67C42.86 34.89 41.56 35.05 41.02 35.65z"/><path style="fill:#FFFFFF;" d="M55.55 11.89s1.22-3.48 1.94-3.52c.73-.04 1.78 3.48 1.78 3.48s3.61.04 3.85.57c.31.68-2.31 2.96-2.31 2.96s.85 3.4.45 3.81c-.45.45-3.56-1.34-3.56-1.34s-3.2 2.23-3.89 1.62c-.6-.53.65-4.13.65-4.13s-3-2.19-2.84-2.8C51.85 11.68 55.55 11.89 55.55 11.89z"/><path style="fill:#FFFFFF;" d="M97.01 95.33c1.21.67 2.73.29 3.29-1 .51-1.15-.43-2.52-1.28-2.89s-2.34.12-2.88 1.09C95.61 93.49 96.28 94.93 97.01 95.33z"/><path style="fill:#FFFFFF;" d="M114.19 65.84c-.69-1.07-2.18-1.42-3.15-.56-.94.84-.71 2.16-.18 2.83.53.67 1.95.92 2.81.37S114.61 66.48 114.19 65.84z"/></svg>