<svg id="Layer_2" xmlns="http://www.w3.org/2000/svg" xmlns:xlink="http://www.w3.org/1999/xlink" viewBox="0 0 128 128" style="enable-background:new 0 0 128 128;"><path style="fill:#9A9A9A;" d="M30.77 22.75c-15.51 7.17-26.7 18.4-26.61 21.12.05 1.41.77 3.94 2.82 6.1 1.21 1.28 4.43 3.61 6.69 3.75 2.25.14 18.51-10.7 18.51-10.7l16.19-2.25 9.85 23.51s3.24 4.65 7.74 8.45 8.87 5.07 9.85 4.22-1.9-6.55-2.11-8.02c-.28-1.96-1.13-6.76 3.66-6.05s13.66 4.22 13.66 9.43c0 5.21-3.52 10.98-13.51 10.98s-24.07-3.24-30.55-2.96c-6.48.28-12.25.84-18.16 3.24-4.38 1.77-9.29 5.07-9.15 5.49.14.42 5.63 2.25 12.11 3.1s19.01.7 21.12 3.8 2.67 7.56 1.97 14.17-.42 12.01-.28 12.01 5.67-3.16 8.45-8.02c4.5-7.88 4.5-17.46 6.19-19.43s8.69-2.51 14.36-3.24c5.82-.75 38.86-2.11 38.86-35.05.0-26.47-25.2-32.38-25.76-32.94-.56-.56-1.48-4.7.42-8.45 1.5-2.96 4.04-7.46 3.24-8.59-.99-1.4-10.14.14-16.89 3.66S72.44 18.1 72.44 18.1s-25.97-2.61-41.67 4.65z"/><path style="fill:#E0E0E0;" d="M34.71 36.82c5.13-2.27 13.53-4.11 19.85-4.5 11.33-.7 20.98.63 20.98.63s4.12 8.59 7.46 12.88c5.84 7.5 14.25 13.3 15.38 11.68.94-1.35.18-8.45-1.3-12.81-.73-2.15-3.1-7.88-3.1-7.88s10.28.84 16.19 9.29c5.91 8.45 8.3 26.33-4.65 33.93-11.26 6.62-17.6 5.63-17.6 5.63s6.75-7.46 5.68-12.72c-1.13-5.54-3.57-7.04-7.79-7.84-2.67-.5-25.58.0-31.63-.14s-15.16-.56-21.45-2.49c-3.01-.92-5.16-2.35-5.16-2.35l.14-5.07s-5.16 1.03-8.12.75-7.13-1.97-7.41-2.39c-.28-.42 3.33-3.58 6.34-5.91C22.28 44.61 28.66 39.5 34.71 36.82z"/><path style="fill:#FF2B25;" d="M47.52 43.91c0 1.43-1.69 1.36-3.14 1.36-1.44.0-2.39.09-3.05.56s-.18 3.74-6.19 9.2c-3.57 3.24-6.95 5.4-7.51 5.21s-1.64-2.96-1.88-3.99c-2.39.7-7.77-.37-6.95-.56 2.77-.66 6.91-2.56 9.67-4.65 1.92-1.45 5.61-4.35 6.76-5.12.99-.66 3.85-2.77 5.12-2.91C42.4 42.79 47.52 42.36 47.52 43.91z"/><path style="fill:#2F2F2F;" d="M39.64 36.07c0 2.33-2.16 4.32-4.83 4.04-2.29-.24-4.18-1.89-4.18-4.22s1.82-4.43 4.13-4.5C38.48 31.26 39.64 33.74 39.64 36.07z"/><path style="fill:#FFFEFD;" d="M29.5 53.76c.89-.75-.89-2.82-.89-2.82l-2.16 1.43C26.45 52.38 28.29 54.79 29.5 53.76z"/><path style="fill:#FFFEFD;" d="M34.66 49.96c.89-.75-.94-3-.94-3l-2.3 1.78C31.43 48.74 33.45 50.99 34.66 49.96z"/><path style="fill:#FFFEFD;" d="M37.01 48.7c-.76.89 1.41 2.91 1.41 2.91s1.8-2.38 1.6-2.53C39.83 48.93 38.04 47.49 37.01 48.7z"/><path style="fill:#FFFEFD;" d="M33.12 52.59c-.76.89.99 3.19 1.29 3.1s1.99-1.88 1.99-1.88-2.26-2.43-3.28-1.22z"/><path style="fill:#606568;" d="M65.17 25.42c-1.13.75-.38 2.35.28 3.66s1.08 2.51 1.15 4.29c.06 1.6-.35 4.48-.54 5.47-.17.91-.78 2.9.56 3.24 1.69.42 2.16-.89 2.53-2.16.49-1.65.74-5.01.66-6.71-.19-3.64-1.41-5.82-1.97-6.66S66.27 24.68 65.17 25.42z"/><path style="fill:#606568;" d="M73.38 27.67c-.75.6.0 2.39.33 3.19s.49 1.92.49 3.07c0 .8-.16 2.65-.26 3.68-.14 1.54-.06 2.46 1.08 2.67 1.78.33 1.85-2.06 2.02-3.05.13-.79.25-3.39.15-4.61-.09-1.22-.67-2.99-1.37-4.07C75.25 27.7 74.32 26.92 73.38 27.67z"/><path style="fill:#606568;" d="M57.66 24.72c-1.54.79.14 3.43.56 4.32s1.03 2.86.99 4.93c-.05 2.06-.21 4.18-.56 5.33-.31 1-1.22 2.7-.52 3.4 1.03 1.03 2.69-.04 3.26-1.71.84-2.46 1.06-4.48.96-7.67C62.23 29.03 59.96 23.54 57.66 24.72z"/><path style="fill:#FFFEFD;" d="M28.89 56.3c-.76.89.89 2.96.89 2.96l2.3-1.6S29.92 55.09 28.89 56.3z"/><path style="fill:#FFFEFD;" d="M38.84 46.3c.87-.78-.61-2.44-.61-2.44s-2.11 1.27-2.02 1.41C36.42 45.57 37.9 47.15 38.84 46.3z"/></svg>